<svg width="1408" height="768" viewBox="0 0 1408 768" fill="none" xmlns="http://www.w3.org/2000/svg">
<path d="M625.439 302.109C628.208 301.848 632.209 301.829 635.02 301.809C655.931 301.469 676.114 309.489 691.09 324.089C710.12 342.971 717.325 369.44 717.641 395.519C718.246 446.172 687.225 492.416 632.885 491.333C607.856 490.834 593.96 483.326 576.468 465.843C576.917 479.134 576.697 493.202 576.686 506.557L576.699 556.807L527.309 556.849L527.311 306.006L576.66 306.022C576.708 312.863 576.596 319.705 576.324 326.542C590.92 311.4 604.314 304.228 625.439 302.109ZM576.787 366.406L576.701 425.603C587.928 437.948 599.13 446.649 616.721 447.421C620.131 447.583 623.55 447.433 626.933 446.973C683.423 436.463 677.238 342.65 616.981 344.707C598.858 346.559 588.506 352.66 576.787 366.406Z" fill="#1FC45F"/>
<path d="M827.888 302.109C833.065 301.797 838.255 301.731 843.439 301.912C889.35 303.587 922.577 334.117 929.707 379.309C931.487 390.598 931.515 400.6 931.054 411.982L792.544 411.919C802.045 452.551 842.786 460.402 877.319 445.635C884.352 442.628 890.004 438.333 895.937 433.562L898.975 437.644C905.129 446.477 911.942 455.431 918.37 464.116C900.756 481.112 880.908 487.791 857.148 490.745C800.484 497.887 746.584 467.149 741.524 406.687C736.794 350.081 771.21 307.386 827.888 302.109ZM792.22 379.432L845.969 379.344C857.856 379.362 870.733 379.124 882.537 379.443C876.315 349.498 859.836 337.846 829.703 340.507C807.524 345.035 796.545 357.622 792.22 379.432Z" fill="#1FC45F"/>
<path d="M500.194 211.924C500.986 211.723 501.101 211.85 501.978 211.949C502.146 212.611 478.6 325.541 476.175 335.636C465.813 325.09 454.607 314.45 444 304.082C405.638 343.313 367.497 382.76 329.581 422.421L291.061 462.89C283.989 470.332 274.693 480.603 267.249 487.226C260.555 487.609 193.356 488.131 191.41 486.868L192.364 485.754C199.796 477.087 209.846 466.922 217.787 458.523L262.808 410.916C307.758 362.951 353.26 315.504 399.303 268.588C386.861 259.968 372.258 249.889 359.478 242.038C405.986 232.946 453.638 221.765 500.194 211.924Z" fill="#1FC45F"/>
<path d="M1121.52 255.015L1171.93 255.05L1171.89 306.055L1211.46 306.003C1211.75 319.675 1211.51 334.122 1211.5 347.853L1171.98 347.863L1171.84 400.526C1171.78 414.188 1167.91 442.538 1184.39 447.567C1192.27 449.971 1201.04 446.047 1207.84 442.2L1217.49 476.319C1218.18 478.949 1218.35 478.209 1217.78 480.398C1197.24 495.172 1153.98 496.191 1135.2 477.651C1118.3 460.961 1121.47 430.173 1121.49 408.079L1121.52 347.806L1091.64 347.905L1091.6 306.036L1121.52 306.067V255.015Z" fill="#1FC45F"/>
<path d="M1066.44 302.095L1076.09 301.845L1076.05 350.519C1067.94 348.948 1063.43 348.204 1055.13 348.928C1039.08 350.191 1024.22 357.885 1013.92 370.266L1013.99 487.451C997.37 487.628 980.43 487.465 963.793 487.466L963.841 475.445L963.869 306.048L1013.75 306.032C1013.89 314.516 1013.88 323.003 1013.71 331.488C1027.7 314.174 1044.31 304.497 1066.44 302.095Z" fill="#1FC45F"/>
<path d="M394.425 377.901C397.489 379.319 484.737 475.212 496.327 487.473C483.625 487.729 470.284 487.536 457.53 487.551C443.75 487.6 429.97 487.562 416.19 487.436C409.994 481.598 401.785 471.99 395.924 465.451C382.35 450.033 368.646 434.731 354.814 419.545C366.293 406.191 382.01 391.331 394.425 377.901Z" fill="#1FC45F"/>
<path d="M193.209 247.022C217.315 247.011 248.277 246.105 271.836 247.333C277.82 253.015 283.799 260.192 289.521 266.249C304.162 281.748 318.306 298.662 333.192 313.851L311.887 336.179C305.451 342.903 299.082 349.692 292.782 356.545C260.586 320.73 224.311 283.158 193.209 247.022Z" fill="#1FC45F"/>
</svg>
