<svg width="1408" height="768" viewBox="0 0 1408 768" fill="none" xmlns="http://www.w3.org/2000/svg">
<path d="M500.194 211.924C500.986 211.723 501.101 211.85 501.978 211.949C502.146 212.611 478.6 325.541 476.175 335.636C465.813 325.09 454.607 314.45 444 304.082C405.638 343.313 367.497 382.76 329.581 422.421L291.061 462.89C283.989 470.332 274.693 480.603 267.249 487.226C260.555 487.609 193.356 488.131 191.41 486.868L192.364 485.754C199.796 477.087 209.846 466.922 217.787 458.523L262.808 410.916C307.758 362.951 353.26 315.504 399.303 268.588C386.861 259.968 372.258 249.889 359.478 242.038C405.986 232.946 453.638 221.765 500.194 211.924Z" fill="#1FC45F"/>
<path d="M394.425 377.901C397.489 379.319 484.737 475.212 496.327 487.473C483.625 487.729 470.284 487.536 457.53 487.551C443.75 487.6 429.97 487.562 416.19 487.436C409.994 481.598 401.785 471.99 395.924 465.451C382.35 450.033 368.646 434.731 354.814 419.545C366.293 406.191 382.01 391.331 394.425 377.901Z" fill="#1FC45F"/>
<path d="M193.209 247.022C217.315 247.011 248.277 246.105 271.836 247.333C277.82 253.015 283.799 260.192 289.521 266.249C304.162 281.748 318.306 298.662 333.192 313.851L311.887 336.179C305.451 342.903 299.082 349.692 292.782 356.545C260.586 320.73 224.311 283.158 193.209 247.022Z" fill="#1FC45F"/>
</svg>
